<?xml version="1.0" encoding="UTF-8"?>
<svg version="1.1" viewBox="0 0 261.44 72.162" xml:space="preserve" xmlns="http://www.w3.org/2000/svg"><g transform="matrix(1.25 0 0 -1.25 -97.812 216.75)"><path d="m128.95 172.54c-10.493 0-18.373-8.3243-18.373-17.32 0-8.848 5.9256-18.153 18.752-18.153 10.495 0 18.366 8.3274 18.366 17.323 0 8.926-5.9198 18.15-18.744 18.15zm70.398 0c-10.499 0-18.373-8.3243-18.373-17.32 0-8.848 5.9209-18.153 18.747-18.153 10.501 0 18.373 8.3274 18.373 17.323 0 8.926-5.9249 18.15-18.747 18.15zm69.939 0-1.8719-0.075c-9.602-23.998-11.849-28.842-13.875-31.47-0.976-1.195-2.2484-1.72-3.9734-1.95l-0.075-1.0734h11.023l-0.15 1.0734c-3.372 0.453-3.4484 0.902-3.4484 2.025 0 1.126 0.369 2.525 2.925 8.825 1.274 0.148 3.5214 0.14687 7.7234 0.14687h4.4984c0.224-0.75 0.45-1.4251 0.675-2.0281 2.397-7.27 2.1714-7.7672 1.1984-8.2922-0.902-0.448-2.4626-0.67656-4.1266-0.67656l-0.0703-1.0734h16.797l-0.0766 1.0734c-1.695 0-3.151 0.6-3.975 1.125-1.498 0.975-1.6495 1.4753-13.198 32.37zm-190.25-0.90156 0.07656-1.075c1.721 0 3.4504-0.30113 4.2734-0.75313 0.527-0.299 0.57344-4.6188 0.57344-14.969 0-10.424-0.04644-14.671-0.57344-14.97-0.823-0.448-2.6644-0.82656-4.2734-0.82656l-0.07656-1.0734h28.691l1.1281 10.042-0.97344 0.23125c-0.675-2.928-2.0286-5.4781-3.4516-6.7531-1.048-0.972-2.925-1.875-5.85-1.875-3.52 0-7.2438 0.37269-8.0688 0.82969-0.528 0.297-0.57344 3.9713-0.57344 14.395 0 10.35 0.04544 14.67 0.57344 14.969 0.825 0.452 2.4866 0.75313 4.0516 0.75313l0.07344 1.075h-15.6zm83.014 0-16.048-0.0734 0.0844-1.0766c1.686 0 2.6219-0.22713 3.6719-0.82813 1.35-0.748 4.6881-5.8202 9.9391-14.892 1.348-2.4 1.5703-3.3021 1.5703-5.1031 0-7.274-0.11875-9.5668-0.56875-9.7938-0.825-0.526-3.1184-0.82813-4.6484-0.82813l-0.075-1.0703h16.572l-0.0734 1.0703c-1.64 0-3.827 0.30213-4.65 0.82813-0.45 0.227-0.575 3.1969-0.575 9.2719 0 3.975 0.0999 4.722 1.8219 7.425 4.129 6.523 6.7724 10.11 9.0984 12.433 1.045 1.047 3.1224 1.5 4.7234 1.5l0.0782 1.0641-12.822 0.0734 0.0687-1.0625c3.042 0 3.9766-0.899 3.9766-1.425 0-1.497-0.52131-2.1608-8.3953-14.533-6.522 10.572-8.6172 14.142-8.6172 14.817 0 0.603 2.4846 1.1281 4.8016 1.1281l0.0672 1.075zm57.092 0 0.0797-1.0766c1.659 0 3.4514-0.29956 4.2734-0.75156 0.524-0.299 0.57188-4.6188 0.57188-14.969 0-10.424-0.0478-14.671-0.57188-14.97-0.822-0.448-2.6954-0.82656-4.2734-0.82656l-0.0797-1.0734h28.7l1.125 10.042-0.97657 0.23125c-0.673-2.928-2.0234-5.4781-3.4484-6.7531-1.048-0.972-2.924-1.875-5.85-1.875-3.524 0-7.2506 0.37269-8.0766 0.82969-0.522 0.297-0.57031 3.9713-0.57031 14.395 0 10.35 0.0514 14.67 0.57344 14.969 0.826 0.452 2.5926 0.75156 4.0516 0.75156l0.0718 1.0766h-15.6zm-90.791-0.67188c7.647 0 13.048-6.3044 13.048-16.348 0-9.975-4.051-15.975-11.475-15.975-7.651 0-12.972 6.2994-12.972 16.348 0 9.975 3.9754 15.975 11.398 15.975zm70.395 0c7.65 0 13.05-6.3044 13.05-16.348 0-9.975-4.0514-15.975-11.473-15.975-7.65 0-12.972 6.2994-12.972 16.348 0 9.975 3.9703 15.975 11.395 15.975zm67.43-5.8609c0.0751 0.01 0.14943-0.0266 0.18593-0.13906 1.275-3.076 3.4486-8.849 5.1766-13.5h-3.9734c-3.602 0-5.7-4.4e-4 -7.125 0.0766 1.348 3.298 3.1479 7.6484 5.5469 13.423 0.039 0.074 0.11394 0.12944 0.18907 0.13906zm-53.684-38.348-0.59531-0.0234h-0.061l-0.0218-0.0547c-2.739-6.819-3.387-8.1848-3.95-8.9078-0.278-0.337-0.52413-0.58238-0.97813-0.58438h-0.0828l-0.0282-0.37969-9e-3 -0.0969h3.2641l-0.0578 0.4-0.0125 0.0766h-0.0766c-0.947 0.029-0.848 0.23744-0.875 0.54844-4e-3 0.243 0.12118 0.64362 0.76718 2.2406 0.401 0.036 1.0288 0.0359 1.9938 0.0359h1.3c0.044-0.152 0.10294-0.30238 0.16094-0.43438 0.426-1.306 0.58681-1.8569 0.58281-2.0719-8e-3 -0.113-0.0153-0.1015-0.0703-0.1375-0.227-0.116-0.76119-0.18325-1.2422-0.18125h-0.0844l-0.0297-0.37969-6e-3 -0.0969h5.1844l-0.0297 0.39375-6e-3 0.0828h-0.0844c-0.448 0-0.79688 0.16325-1.0219 0.30625-0.372 0.219-0.72268 1.1112-3.9047 9.2062l-0.025 0.0578zm43.102 0-0.59844-0.0234h-0.0578l-0.0219-0.0547c-2.742-6.819-3.387-8.1848-3.95-8.9078-0.278-0.337-0.52569-0.58238-0.97969-0.58438h-0.0828l-0.0266-0.37969-0.011-0.0969h3.2641l-0.0578 0.4-0.0141 0.0766h-0.0718c-0.948 0.029-0.85056 0.23744-0.87656 0.54844-2e-3 0.242 0.11962 0.64475 0.76562 2.2438 0.403 0.034 1.0323 0.0328 1.9953 0.0328h1.3016c0.044-0.152 0.10081-0.30237 0.15781-0.43437 0.429-1.304 0.58838-1.8553 0.58438-2.0703-6e-3 -0.115-0.0133-0.10306-0.0703-0.13906-0.227-0.116-0.76432-0.18325-1.2453-0.18125h-0.0828l-0.0266-0.37969-9e-3 -0.0969h5.1844l-0.0282 0.39375-8e-3 0.0828h-0.0812c-0.45 0-0.799 0.16325-1.025 0.30625-0.369 0.219-0.72069 1.1112-3.9047 9.2062l-0.0234 0.0578zm-105.71-0.0438c-1.858-9.6e-4 -3.4058-1.2641-3.4078-2.9031 0.049-3.129 4.6464-2.6752 4.5844-5.1562-6e-3 -0.984-0.62138-1.6345-1.5594-1.6375-1.386 0-2.5549 1.0666-3.0219 2.9156l-0.0203 0.0828-0.29687-0.0594-0.0766-0.0141 0.13437-2.7453 0.0422-0.025c0.873-0.52 1.8938-0.76093 2.8938-0.76093 2.459 4e-3 3.7288 1.59 3.7328 2.925-0.04 3.416-4.6981 3.1331-4.6281 5.3281 8e-3 0.883 0.48806 1.416 1.3891 1.425 0.873 0 1.6332-0.59787 2.2312-2.0969 0.035-0.06 0.0863-0.075 0.12031-0.075 0.124 0.011 0.21813 0.1 0.22813 0.1l0.0406 0.0297-0.1375 2.2562-0.05 0.0203c-0.61 0.26-1.2474 0.39062-2.1984 0.39062zm13.084-0.0328-0.34531-0.12031-0.0594-0.0203v-0.0641c0-0.494-0.3-2.8419-0.3-2.8469l-0.0125-0.10624 0.45 0.0297 0.061 3e-3 0.0172 0.0594c0.45 1.445 1.2767 2.0638 2.5297 2.0688h0.77344c0.081-1.041 0.10156-2.2201 0.10156-4.0891 0-1.481-0.0278-2.5227-0.0718-3.2047-0.023-0.34-0.0513-0.59181-0.0813-0.75781-0.015-0.083-0.0303-0.14438-0.0453-0.18438-0.012-0.042-0.0185-0.0312-0.0125-0.0422-0.201-0.13-0.82694-0.22175-1.2859-0.21875h-0.0813l-0.0282-0.38125-8e-3 -0.0969h5.1625l-0.0282 0.39375-8e-3 0.0844h-0.0812c-0.459-9.6e-4 -1.0411 0.0887-1.2391 0.21875-5e-3 0-4e-3 6.2e-4 -0.0156 0.0406-0.108 0.293-0.18112 1.5624-0.17812 4.1484 0 1.862 0.02 3.1621 0.1 4.0891h0.96718c1.142-7e-3 1.8804-0.59275 2.2484-2.1688l0.0141-0.0625 0.0672-8e-3 0.3-0.0187 0.0969-8e-3 -3e-3 0.0969c0 2e-3 -0.0469 1.7199-0.0469 2.6109 0 0.151 2e-3 0.27675 5e-3 0.36875l2e-3 0.0703-0.36406 0.10313-0.0469 0.0125-0.0359-0.0312c-0.316-0.288-0.84143-0.38525-4.2484-0.38125-2.91-6e-3 -3.8993 0.11581-4.2313 0.38281l-0.0375 0.0297zm-71.361-0.1125 0.02656-0.39688 0.0062-0.0812h0.08281c0.537 9.6e-4 1.0326-0.36387 1.3656-0.79687 0.34-0.466 0.37019-1.5094 0.36719-3.1984v-0.56406c9e-3 -2.921-0.15425-3.8681-0.55625-4.0781-0.216-0.119-0.68025-0.26762-1.1313-0.26562h-0.08437l-0.02813-0.38281-0.0078-0.0937h4.0781l-0.05938 0.4-0.01094 0.0766h-0.07656c-0.429-2e-3 -0.8955 0.14618-1.1125 0.26718-0.085-2e-3 -0.27169 1.0063-0.25469 3.9703 0 0.898 0.03994 1.7931 0.06094 2.4531h0.0031c1.734-2.112 5.3547-5.5851 6.8047-7.3891l0.0281-0.0391 0.56406 0.0719 0.0859 9e-3 -8e-3 0.0828c-0.105 1.273-0.12812 3.1076-0.12812 5.0656-9e-3 3.543 0.15812 4.0179 0.40312 4.1219 0.212 0.118 0.74713 0.24731 1.2031 0.24531h0.0797l6e-3 0.0828 0.0219 0.29844 6e-3 0.0937h-4.1328l0.02969-0.39219 0.0047-0.0828h0.08437c0.454 2e-3 0.96512-0.12731 1.1781-0.24531 0.097-0.031 0.37194-0.50288 0.36094-4.1219 0-0.554-0.0402-1.4339-0.0422-1.9969-8e-3 3e-3 -0.0159 9e-3 -0.0219 0.0156-1.027 1.17-4.4306 4.7286-6.0766 6.7266-0.044 0.068-0.11631 0.11456-0.22031 0.12656-0.026 0-0.04918-0.0107-0.06718-0.0187l-2.8328 0.0359zm169.98-5e-3 0.0282-0.39219 5e-3 -0.0813h0.0859c0.535 9.6e-4 1.0295-0.36387 1.3625-0.79687 0.337-0.466 0.37019-1.5007 0.36719-3.1797v-0.58281c0.01-2.921-0.15313-3.8697-0.55313-4.0797-0.218-0.119-0.68394-0.26606-1.1359-0.26406h-0.0828l-0.0266-0.38282-6e-3 -0.0937h4.075l-0.0578 0.4-0.0125 0.0766h-0.0734c-0.431-2e-3 -0.89763 0.14619-1.1156 0.26719-0.084-2e-3 -0.27212 1.0063-0.25312 3.9703 0 0.896 0.0395 1.793 0.0625 2.45 1.736-2.108 5.3557-5.5819 6.8047-7.3859l0.0297-0.0391 0.56562 0.0719 0.0828 8e-3 -5e-3 0.0844c-0.108 1.275-0.12813 3.1076-0.12813 5.0656-0.01 3.543 0.15413 4.0179 0.40313 4.1219 0.209 0.118 0.743 0.24731 1.2 0.24531h0.0813l6e-3 0.0828 0.0203 0.29688 8e-3 0.0953h-4.1328l0.0282-0.39219 5e-3 -0.0828h0.0844c0.455 2e-3 0.96512-0.12731 1.1781-0.24531 0.1-0.031 0.3705-0.50288 0.3625-4.1219 0-0.554-0.0407-1.4333-0.0438-1.9953-7e-3 4e-3 -0.0153 7e-3 -0.0203 0.0141-1.027 1.17-4.4311 4.7286-6.0781 6.7266-0.043 0.068-0.11474 0.11456-0.21874 0.12656-0.028 0-0.0502-0.0119-0.0672-0.0219l-2.8344 0.0344zm13.389-0.0203 0.0266-0.39375 6e-3 -0.0828h0.0844c0.46 9.6e-4 0.92594-0.0876 1.1359-0.20156 0 9.6e-4 2e-3 1e-3 9e-3 -0.0359 0.096-0.303 0.11762-1.6023 0.11562-4.1703 0-1.482-6e-3 -2.5401-0.0297-3.2391-0.01-0.349-0.0295-0.60769-0.0515-0.77969-0.011-0.088-0.0244-0.15375-0.0344-0.19375s-0.0159-0.0261-0.011-0.0391c-0.21-0.133-0.67437-0.22231-1.1344-0.22031h-0.0828l-0.0282-0.37969-8e-3 -0.0984h5.5609c2.95 7e-3 5.4859 2.0139 5.4859 4.8859-5e-3 2.838-2.0887 4.9434-5.5937 4.9484h-5.4516zm-169.91-0.0203 0.0266-0.39531 6e-3 -0.0812h0.0844c0.455 2e-3 1.0575-0.11044 1.2625-0.22344 9.6e-4 0 1e-3 5e-4 9e-3 -0.0375 0.097-0.306 0.11662-1.6211 0.11562-4.1891 0-1.481-6e-3 -2.5214-0.0281-3.1984-0.011-0.34-0.0286-0.585-0.0516-0.75-0.011-0.081-0.0239-0.14381-0.0359-0.18281-9e-3 -0.034-0.0154-0.0248-9e-3 -0.0328-0.205-0.134-0.8075-0.24731-1.2625-0.24531h-0.0828l-0.0297-0.37969-6e-3 -0.0984h5.1828l-0.0281 0.39531-6e-3 0.0828h-0.0828c-0.456-2e-3 -1.0594 0.11062-1.2594 0.24062-6e-3 4e-3 -5e-3 4e-3 -0.0141 0.0375-0.099 0.29-0.13893 1.5452-0.13593 4.1312 0 1.471 0.0111 2.5243 0.0391 3.2203 0.015 0.346 0.0344 0.60456 0.0594 0.77656 0.013 0.086 0.0255 0.15119 0.0375 0.19219 0.011 0.038 0.0169 0.0265 0.0109 0.0375 0.204 0.113 0.8065 0.22543 1.2625 0.22343h0.0828l0.0281 0.37813 6e-3 0.0984h-5.1812zm18.828 0 0.0297-0.39687 5e-3 -0.0797h0.0844c0.43799 2e-3 0.90393-0.0876 1.1109-0.20156 3e-3 0 3e-3 -6e-5 0.0109-0.0391 0.096-0.31 0.11919-1.6414 0.11719-4.2094 0-1.481-6e-3 -2.5274-0.0297-3.2094-0.011-0.34-0.0286-0.58981-0.0516-0.75781-0.011-0.083-0.0249-0.14637-0.0359-0.18437s-0.0159-0.0265-0.0109-0.0375c-0.208-0.133-0.67294-0.22231-1.1109-0.22031h-0.0828l-0.0281-0.37969-8e-3 -0.0969h8.2078l0.0109 0.0781 0.39375 3.15-0.35469 0.0797-0.0859 0.0219-0.0203-0.0859c-0.232-0.902-0.63244-1.5698-1.0484-1.9828-0.452-0.429-0.95368-0.59275-1.7797-0.59375-0.89-2e-3 -1.5171 0.0731-1.6891 0.17813-0.099 0.136-0.158 1.4282-0.15 3.5062 0 0.254 0.0473 0.33031 0.0953 0.34531 0.069 0.051 0.0614 0.0562 0.82344 0.0562 0.486 0 0.8075-0.0641 1.0625-0.23906 0.228-0.189 0.41832-0.55919 0.54532-1.0172l0.0141-0.0609 0.34062-0.0266 0.0953-5e-3v3.3234l-0.37188-0.0266-0.0703-5e-3 -0.0109-0.0703c-0.085-0.481-0.2285-0.79975-0.4625-0.99375-0.212-0.192-0.52718-0.27656-1.1422-0.27656-0.787 4e-3 -0.71094 0.0169-0.81094 0.0719-0.078 0.054-0.10181 0.0767-0.10781 0.32969 0 0.939 0.0116 1.7422 0.0406 2.3172 0.015 0.29 0.0328 0.52394 0.0578 0.68594 0.011 0.08 0.0261 0.14438 0.0391 0.18438 0.01 0.04 0.0159 0.0296 0.0109 0.0406 0.187 0.093 0.49362 0.15825 1.3906 0.15625 0.733 0 1.2661-0.20613 1.6781-0.55313 0.393-0.331 0.74706-0.82393 0.91406-1.5109l0.0203-0.0828 0.36406 0.0828 0.0734 0.0188-0.20312 2.7156h-7.8703zm10.755 0 0.0281-0.39531 8e-3 -0.0812h0.0828c0.458 2e-3 0.94769-0.0876 1.1547-0.20156 2e-3 0 9.6e-4 -5e-4 0.0109-0.0375 0.1-0.296 0.1395-1.581 0.1375-4.15 0-1.48-0.0112-2.5385-0.0422-3.2375-0.013-0.349-0.0338-0.60468-0.0578-0.77968-0.012-0.087-0.0245-0.15276-0.0375-0.19376-0.01-0.038-0.0165-0.0265-0.0125-0.0375-0.205-0.134-0.69512-0.22388-1.1531-0.22188h-0.0828l-0.0281-0.37968-8e-3 -0.0984h4.9469l-0.0281 0.39687-8e-3 0.0812h-0.0812c-0.437-2e-3 -0.90338 0.0883-1.1094 0.22032-0.012 5e-3 -0.0156 5e-3 -0.0156 0.0297-0.098 0.239-0.13694 1.3324-0.13594 3.2844 0.014 0.165 0.0137 0.14575 0.0797 0.16875 0.157 0.043 0.149 0.0396 0.325 0.0406 0.69-0.012 0.84362 2e-3 1.3406-0.68594 1.508-2.248 0.84794-3.5355 3.5609-3.6625 0.2-3e-3 0.38887-8e-3 0.57187-8e-3 0.402 0 0.7705 0.0213 1.1625 0.0953l0.0625 0.0141 0.0297 0.27656 0.0109 0.0984h-0.0984c-0.22301 0-0.367 0.0414-0.65 0.0844-1.063 0.131-1.3855 1.3757-1.7125 2.0797-0.70599 1.459-1.4439 1.83-1.8219 2.025 1.274 0.374 2.2122 1.5864 2.2172 2.5844-3e-3 1.404-1.3016 2.6866-3.6016 2.6906h-5.0453zm20.438 0 0.0281-0.39687 6e-3 -0.0797h0.0828c0.455 2e-3 1.0591-0.11044 1.2641-0.22344l8e-3 -0.0375c0.097-0.306 0.11719-1.6211 0.11719-4.1891 0-1.481-5e-3 -2.5214-0.0297-3.1984-0.011-0.34-0.0286-0.585-0.0516-0.75-0.011-0.081-0.0239-0.14381-0.0359-0.18281-9e-3 -0.034-0.0154-0.0248-9e-3 -0.0328-0.204-0.134-0.8075-0.24731-1.2625-0.24531h-0.0828l-0.0266-0.37969-9e-3 -0.0984h5.1844l-0.0313 0.39531-5e-3 0.0828h-0.0812c-0.456-2e-3 -1.061 0.11062-1.2609 0.24062-6e-3 4e-3 -6e-3 4e-3 -0.0125 0.0375-0.1 0.289-0.14106 1.5452-0.13906 4.1312 0 1.471 0.0111 2.5238 0.0391 3.2188 0.016 0.347 0.0364 0.60712 0.0594 0.77812 0.013 0.087 0.0266 0.15019 0.0406 0.19219 9e-3 0.038 0.0154 0.0265 9e-3 0.0375 0.204 0.113 0.80807 0.22543 1.2641 0.22343h0.0812l0.0282 0.37813 6e-3 0.0984h-5.1813zm23.133 0-5.0734-0.0203 0.0266-0.39531 6e-3 -0.0828h0.0828c0.464-2e-3 0.71869-0.0609 1.0047-0.22188 0.334-0.172 1.3471-1.701 2.8391-4.275 0.38-0.679 0.39131-0.89312 0.39531-1.4031 0-1.032-0.0164-1.7156-0.0484-2.1406-0.015-0.213-0.0364-0.36437-0.0594-0.45937-0.017-0.097-0.039-0.1055-0.0359-0.1125-0.204-0.135-0.83049-0.229-1.2875-0.225h-0.0828l-0.0282-0.38125-8e-3 -0.0969h5.2047l-0.0297 0.39375-5e-3 0.0844h-0.0828c-0.458-4e-3 -1.0847 0.0903-1.2797 0.22031-8e-3 5e-3 -0.011 0.0203-0.011 0.0203-0.085 0.187-0.14419 1.0439-0.14219 2.5469 6e-3 1.136 0.015 1.2991 0.5 2.0641 1.178 1.853 1.8646 2.8932 2.5156 3.5422 0.37 0.366 0.7145 0.44075 1.2875 0.44375h0.0828l6e-3 0.0828 0.0234 0.29687 8e-3 0.0984-3.8781 0.0203 0.0282-0.39531 5e-3 -0.0812h0.0828c0.866 0 1.025-0.30037 1.025-0.35937 5e-3 -0.437-0.12906-0.64944-2.1391-3.9234-1.8 2.896-2.3472 3.9386-2.3312 4.0516-2e-3 5e-3 -1.2e-4 0.0102 0.0719 0.0422 0.201 0.102 0.72293 0.19007 1.2109 0.18907h0.0813l0.0297 0.37812 5e-3 0.0984zm14.07 0 0.0313-0.39375 3e-3 -0.0828h0.0859c0.56-2e-3 0.90175-0.14444 1.1438-0.32344 0.283-0.187 0.44875-0.80443 0.44375-2.2734 0-0.51-0.0174-1.1206-0.0484-1.8516-0.132-2.867-0.27668-4.0871-0.55468-4.1891-0.209-0.116-0.72113-0.22387-1.1781-0.22187h-0.0828l-0.0282-0.37969-8e-3 -0.0969h3.8344l-0.0297 0.39375-5e-3 0.0828h-0.0844c-0.459-2e-3 -0.87794 0.0873-1.0859 0.22031-0.04 3e-3 -0.13888 0.42625-0.12188 1.4062 0 0.655 0.0202 1.5631 0.0562 2.7781 0.018 1.273 0.0412 2.1754 0.1422 3.0484 1.015-2.279 2.0769-4.8379 3.3719-8.0219l0.025-0.0625 0.40781 0.05 0.05 5e-3 0.0218 0.0453c1.834 4.141 2.3742 5.7884 3.3922 8.1344 0.015 0 0.0156 5.6e-4 0.0156 2e-3 0.043-1.093 0.0638-1.3676 0.1078-3.0516 0.03-1.228 0.0516-2.103 0.0516-2.725-2e-3 -1.333-0.0952-1.4902-0.30625-1.6062-0.194-0.116-0.593-0.22188-1.05-0.22188h-0.0828l-0.0266-0.37969-6e-3 -0.0969h5.1656l-0.0562 0.4-0.0125 0.0766h-0.0766c-0.457-2e-3 -1.0608 0.0903-1.2578 0.22031-0.024 3e-3 -0.10551 0.214-0.13751 0.85-0.045 0.635-0.0906 1.6786-0.16562 3.3406-0.06 1.239-0.12344 2.1251-0.12344 2.7641 2e-3 0.796 0.10306 1.182 0.41406 1.425 0.12 0.108 0.51757 0.26137 1.0766 0.25937h0.0844l0.0266 0.37813 6e-3 0.0984h-3.5859c-0.079 7e-3 -0.18806-0.0499-0.21406-0.14688-0.96-2.638-1.4295-3.9951-2.8375-7.0531-1.24 3.041-1.9454 4.7612-2.7984 7.0562-0.073 0.101-0.14881 0.15575-0.23281 0.14375h-3.7609zm26.33 0 0.0282-0.39531 6e-3 -0.0812h0.0828c0.46 2e-3 0.95138-0.0876 1.1594-0.20156l6e-3 -0.0375c0.099-0.296 0.14105-1.581 0.13905-4.15 0-1.48-0.0116-2.5385-0.0406-3.2375-0.014-0.349-0.0334-0.60468-0.0594-0.77968-0.013-0.087-0.025-0.15275-0.039-0.19376-9e-3 -0.038-0.0164-0.0265-9e-3 -0.0375-0.209-0.134-0.69625-0.22388-1.1562-0.22188h-0.0828l-0.0282-0.37968-6e-3 -0.0984h4.9453l-0.0282 0.39687-5e-3 0.0812h-0.0813c-0.438-2e-3 -0.90593 0.0883-1.1109 0.22032-0.015 5e-3 -0.0172 5e-3 -0.0172 0.0297-0.096 0.239-0.13582 1.3324-0.13282 3.2844 0.012 0.165 0.0116 0.14575 0.0766 0.16875 0.158 0.043 0.15157 0.0396 0.32657 0.0406 0.692-0.012 0.84462 2e-3 1.3406-0.68594 1.509-2.248 0.84894-3.5355 3.5609-3.6625 0.2-3e-3 0.38831-8e-3 0.57031-8e-3 0.401 0 0.77363 0.0213 1.1656 0.0953l0.0625 0.0141 0.0297 0.27656 9e-3 0.0984h-0.0984c-0.222 0-0.36756 0.0414-0.65156 0.0844-1.061 0.131-1.3854 1.3757-1.7094 2.0797-0.709 1.459-1.4459 1.8331-1.8219 2.0281 1.272 0.374 2.2102 1.5832 2.2172 2.5812-4e-3 1.404-1.3021 2.6866-3.6031 2.6906h-5.0453zm14.97 0-5.075-0.0234 0.0282-0.39375 5e-3 -0.0813h0.0859c0.463-2e-3 0.71769-0.0599 1.0047-0.22187 0.335-0.171 1.3481-1.701 2.8391-4.275 0.379-0.679 0.39331-0.89313 0.39531-1.4031 0-1.032-0.018-1.7156-0.05-2.1406-0.016-0.213-0.0358-0.36438-0.0578-0.45938-0.019-0.097-0.0405-0.1055-0.0375-0.1125-0.204-0.135-0.8315-0.229-1.2875-0.225h-0.0828l-0.0266-0.38125-9e-3 -0.0969h5.2047l-0.0282 0.39375-6e-3 0.0844h-0.0828c-0.458-4e-3 -1.0857 0.0897-1.2797 0.21875-9e-3 6e-3 -0.0125 0.0219-0.0125 0.0219-0.084 0.187-0.14106 1.0439-0.13906 2.5469 3e-3 1.136 0.0146 1.2991 0.50156 2.0641 1.177 1.853 1.8616 2.8932 2.5156 3.5422 0.366 0.366 0.71338 0.43975 1.2844 0.44375h0.0844l5e-3 0.0813 0.0218 0.29844 8e-3 0.0969-3.8766 0.0219 0.0266-0.39532 5e-3 -0.0828h0.0859c0.865 0 1.023-0.29881 1.025-0.35781 5e-3 -0.438-0.12906-0.65044-2.1391-3.9234-1.802 2.896-2.3472 3.938-2.3312 4.05 0 6e-3 -2e-3 0.0117 0.0687 0.0438 0.203 0.102 0.72651 0.1895 1.2125 0.1875h0.0828l0.0266 0.37969 6e-3 0.0984zm7.05 0 0.0282-0.39531 8e-3 -0.0828h0.0813c0.452 2e-3 0.96513-0.14606 1.1781-0.26406 2e-3 0 2e-3 6e-5 9e-3 -0.0359 0.097-0.297 0.11918-1.582 0.11718-4.15 0-1.481-7e-3 -2.5268-0.0313-3.2078-0.01-0.34-0.027-0.58981-0.05-0.75781-0.012-0.084-0.0239-0.14638-0.0359-0.18438-9e-3 -0.039-0.0144-0.0281-9e-3 -0.0391-0.208-0.112-0.71912-0.21975-1.1781-0.21875h-0.0813l-0.0282-0.38125-8e-3 -0.0969h8.2531l8e-3 0.0797 0.32968 3.0234-0.4 0.0797-0.0828 0.0172-0.0218-0.0844c-0.189-0.817-0.55194-1.5766-0.93594-1.9156-0.285-0.263-0.79894-0.55313-1.6109-0.55313-0.999 0-1.6204 0.111-1.8234 0.225-5e-3 -3e-3 -0.03 0.0463-0.05 0.19532-0.079 0.451-0.11918 1.5988-0.11718 3.8188 0 1.471 0.0176 2.5134 0.0515 3.1984 0.018 0.342 0.0396 0.59294 0.0656 0.76094 0.013 0.085 0.0266 0.1475 0.0406 0.1875 0.01 0.038 0.0155 0.0301 0.0125 0.0391 0.218 0.118 0.68306 0.26406 1.1141 0.26406h0.0812l0.0266 0.37969 6e-3 0.0984h-4.9469zm-161.65-3e-3 0.02969-0.39219 0.0047-0.0812h0.08438c0.458 0 0.81056-0.0856 1.0266-0.20156 0 0 0.0018 1e-3 0.0078-0.0297 0.091-0.257 0.09887-1.4931 0.09687-5.3281 3e-3 -2.557 1.5764-4.0288 4.2234-4.0328h0.02656c2.935 0 4.1222 1.7985 4.1312 4.2875 4e-3 3.202 0.082 4.8946 0.325 5.0016 0.209 0.133 0.76606 0.30613 1.2141 0.30313h0.08281l0.0062 0.0812 0.02187 0.29687 0.0062 0.0953h-4.0531l0.05625-0.39844 0.01094-0.075h0.07812c0.388 3e-3 1.0341-0.13413 1.2531-0.30313 0.204-0.098 0.28262-2.4869 0.26562-4.8109-0.01-1.942-0.76662-3.3808-2.5906-3.3828-1.941 0.015-2.9803 0.85813-2.9953 3.1281 0 2.057 0.0052 3.3429 0.03125 4.1219 0.013 0.777 0.10575 1.0469 0.11875 1.0469 0.198 0.111 0.75875 0.203 1.2188 0.2h0.08125l0.02813 0.37812 0.0047 0.0953h-4.7953zm32.641 0 0.0562-0.39844 0.0109-0.0766h0.0781c0.472 0 0.77056-0.15869 1.0016-0.30469 0.37-0.222 0.96088-1.4975 4.1219-9.1875l0.0234-0.0578 0.59687 0.025h0.0594l0.0219 0.0562c2.676 6.754 3.3649 8.2025 3.8859 8.8875 0.266 0.344 0.64793 0.58125 1.0859 0.58125h0.0828l6e-3 0.0828 0.0219 0.3 5e-3 0.0922h-3.4328l0.0578-0.39843 0.0109-0.0766h0.0766c0.951-0.028 0.87243-0.241 0.89843-0.55 4e-3 -0.357-0.33487-1.3729-2.3969-6.3359-0.479 1.085-1.3159 3.1898-1.7359 4.3438-0.491 1.356-0.65569 1.9306-0.65469 2.1656 0.01 0.133 0.0219 0.126 0.0969 0.175 0.242 0.121 0.54756 0.20157 1.0516 0.20157h0.0828l0.0266 0.38281 6e-3 0.0922h-5.1453zm168.39-0.57969c2.231-8e-3 3.715-1.3514 3.725-4.2594-0.01-3.069-1.3338-4.3164-3.0578-4.3234-1.247 0-1.6218 0.0646-1.9328 0.34062-0.21599 0.131-0.26456 1.9309-0.25156 3.9609-0.013 2.923 0.0781 4.002 0.16406 4.025 0.197 0.166 0.65413 0.25825 1.3531 0.25625zm-56.839-0.0203c0.038 0 0.075-2e-3 0.11406-2e-3 0.998 0 1.8585-0.84338 1.8625-2.2344-0.014-1.419-0.67181-2.1376-2.1828-2.1516-0.158-2e-3 -0.62831 0.0294-0.69531 0.0594-0.093 0.028-0.0802 0.0236-0.0922 0.15156-0.015 2.021 0.0948 4.047 0.14376 4.05 0.066 0.082 0.382 0.12456 0.85 0.12656zm-83.966-2e-3h0.11094c0.995 0 1.8569-0.84338 1.8609-2.2344-0.014-1.419-0.67225-2.1376-2.1812-2.1516-0.16-2e-3 -0.62931 0.0294-0.69531 0.0594-0.096 0.028-0.0833 0.0236-0.0953 0.15156-0.014 2.021 0.0953 4.047 0.14531 4.05 0.064 0.08 0.38469 0.125 0.85469 0.125zm115.36-1.8188c0.389-0.946 0.93406-2.3098 1.3891-3.4828h-1.0891c-0.795 0-1.3264 7.5e-4 -1.7344 0.0188 0.357 0.854 0.82938 2.0171 1.4344 3.4641zm-43.102-3e-3c0.392-0.945 0.93562-2.3067 1.3906-3.4797h-1.0906c-0.793 0-1.3248 7.5e-4 -1.7328 0.0187 0.355 0.854 0.82582 2.0119 1.4328 3.4609z"/></g></svg>
